<mxfile host="app.diagrams.net" modified="2023-05-09T16:01:49.264Z" agent="Mozilla/5.0 (Windows NT 10.0; Win64; x64) AppleWebKit/537.36 (KHTML, like Gecko) Chrome/112.0.0.0 Safari/537.36" etag="_Pe3G2SW1IsQOiRSUA9F" version="21.2.9" type="google">
  <diagram name="PÃ¡gina-1" id="MC-ogRU14ZCNcQKbzAtm">
    <mxGraphModel grid="1" page="1" gridSize="10" guides="1" tooltips="1" connect="1" arrows="1" fold="1" pageScale="1" pageWidth="291" pageHeight="413" math="0" shadow="0">
      <root>
        <mxCell id="0" />
        <mxCell id="1" parent="0" />
        <mxCell id="RDYVH3wZ4H2K-UH9AXLW-13" style="edgeStyle=orthogonalEdgeStyle;rounded=0;orthogonalLoop=1;jettySize=auto;html=1;exitX=1;exitY=0.5;exitDx=0;exitDy=0;entryX=0.219;entryY=0.012;entryDx=0;entryDy=0;entryPerimeter=0;" edge="1" parent="1" source="z4GlL1HvJ0bHVtuUzZhY-1" target="J4YMdQohhsvqRCw_7hK--110">
          <mxGeometry relative="1" as="geometry" />
        </mxCell>
        <mxCell id="z4GlL1HvJ0bHVtuUzZhY-1" value="CARRO" style="rounded=0;whiteSpace=wrap;html=1;" vertex="1" parent="1">
          <mxGeometry x="670" y="170" width="195" height="90" as="geometry" />
        </mxCell>
        <mxCell id="z4GlL1HvJ0bHVtuUzZhY-30" value="" style="ellipse;whiteSpace=wrap;html=1;rounded=0;" vertex="1" parent="1">
          <mxGeometry x="655" y="20" width="30" as="geometry" />
        </mxCell>
        <mxCell id="z4GlL1HvJ0bHVtuUzZhY-44" value="" style="ellipse;whiteSpace=wrap;html=1;align=center;" vertex="1" parent="1">
          <mxGeometry x="755" y="305" width="20" height="20" as="geometry" />
        </mxCell>
        <mxCell id="z4GlL1HvJ0bHVtuUzZhY-45" value="" style="endArrow=none;html=1;rounded=0;curved=1;" edge="1" parent="1">
          <mxGeometry relative="1" as="geometry">
            <mxPoint x="715" y="260" as="sourcePoint" />
            <mxPoint x="715" y="470" as="targetPoint" />
          </mxGeometry>
        </mxCell>
        <mxCell id="z4GlL1HvJ0bHVtuUzZhY-46" value="ID_Modelo" style="text;html=1;align=center;verticalAlign=middle;resizable=0;points=[];autosize=1;strokeColor=none;fillColor=none;" vertex="1" parent="1">
          <mxGeometry x="772.5" y="300" width="80" height="30" as="geometry" />
        </mxCell>
        <mxCell id="z4GlL1HvJ0bHVtuUzZhY-47" value="" style="endArrow=none;html=1;rounded=0;curved=1;" edge="1" parent="1">
          <mxGeometry relative="1" as="geometry">
            <mxPoint x="715" y="315" as="sourcePoint" />
            <mxPoint x="755" y="315" as="targetPoint" />
          </mxGeometry>
        </mxCell>
        <mxCell id="z4GlL1HvJ0bHVtuUzZhY-69" value="" style="ellipse;whiteSpace=wrap;html=1;align=center;" vertex="1" parent="1">
          <mxGeometry x="755" y="340" width="20" height="20" as="geometry" />
        </mxCell>
        <mxCell id="z4GlL1HvJ0bHVtuUzZhY-70" value="" style="endArrow=none;html=1;rounded=0;curved=1;" edge="1" parent="1">
          <mxGeometry relative="1" as="geometry">
            <mxPoint x="715" y="350" as="sourcePoint" />
            <mxPoint x="755" y="350" as="targetPoint" />
          </mxGeometry>
        </mxCell>
        <mxCell id="z4GlL1HvJ0bHVtuUzZhY-71" value="" style="ellipse;whiteSpace=wrap;html=1;align=center;" vertex="1" parent="1">
          <mxGeometry x="755" y="370" width="20" height="20" as="geometry" />
        </mxCell>
        <mxCell id="z4GlL1HvJ0bHVtuUzZhY-72" value="" style="endArrow=none;html=1;rounded=0;curved=1;" edge="1" parent="1">
          <mxGeometry relative="1" as="geometry">
            <mxPoint x="715" y="380" as="sourcePoint" />
            <mxPoint x="755" y="380" as="targetPoint" />
          </mxGeometry>
        </mxCell>
        <mxCell id="z4GlL1HvJ0bHVtuUzZhY-75" value="" style="ellipse;whiteSpace=wrap;html=1;align=center;" vertex="1" parent="1">
          <mxGeometry x="755" y="400" width="20" height="20" as="geometry" />
        </mxCell>
        <mxCell id="z4GlL1HvJ0bHVtuUzZhY-76" value="" style="endArrow=none;html=1;rounded=0;curved=1;" edge="1" parent="1">
          <mxGeometry relative="1" as="geometry">
            <mxPoint x="715" y="410" as="sourcePoint" />
            <mxPoint x="755" y="410" as="targetPoint" />
          </mxGeometry>
        </mxCell>
        <mxCell id="z4GlL1HvJ0bHVtuUzZhY-77" value="" style="ellipse;whiteSpace=wrap;html=1;align=center;" vertex="1" parent="1">
          <mxGeometry x="755" y="430" width="20" height="20" as="geometry" />
        </mxCell>
        <mxCell id="z4GlL1HvJ0bHVtuUzZhY-78" value="" style="endArrow=none;html=1;rounded=0;curved=1;" edge="1" parent="1">
          <mxGeometry relative="1" as="geometry">
            <mxPoint x="715" y="440" as="sourcePoint" />
            <mxPoint x="755" y="440" as="targetPoint" />
          </mxGeometry>
        </mxCell>
        <mxCell id="z4GlL1HvJ0bHVtuUzZhY-79" value="" style="ellipse;whiteSpace=wrap;html=1;align=center;" vertex="1" parent="1">
          <mxGeometry x="755" y="460" width="20" height="20" as="geometry" />
        </mxCell>
        <mxCell id="z4GlL1HvJ0bHVtuUzZhY-80" value="" style="endArrow=none;html=1;rounded=0;curved=1;" edge="1" parent="1">
          <mxGeometry relative="1" as="geometry">
            <mxPoint x="715" y="470" as="sourcePoint" />
            <mxPoint x="755" y="470" as="targetPoint" />
          </mxGeometry>
        </mxCell>
        <mxCell id="z4GlL1HvJ0bHVtuUzZhY-86" value="Cor" style="text;html=1;align=center;verticalAlign=middle;resizable=0;points=[];autosize=1;strokeColor=none;fillColor=none;" vertex="1" parent="1">
          <mxGeometry x="770" y="395" width="40" height="30" as="geometry" />
        </mxCell>
        <mxCell id="z4GlL1HvJ0bHVtuUzZhY-87" value="Preco" style="text;html=1;align=center;verticalAlign=middle;resizable=0;points=[];autosize=1;strokeColor=none;fillColor=none;" vertex="1" parent="1">
          <mxGeometry x="770" y="425" width="50" height="30" as="geometry" />
        </mxCell>
        <mxCell id="z4GlL1HvJ0bHVtuUzZhY-88" value="Estado_Conservacao" style="text;html=1;align=center;verticalAlign=middle;resizable=0;points=[];autosize=1;strokeColor=none;fillColor=none;" vertex="1" parent="1">
          <mxGeometry x="767.5" y="455" width="140" height="30" as="geometry" />
        </mxCell>
        <mxCell id="z4GlL1HvJ0bHVtuUzZhY-95" value="" style="ellipse;whiteSpace=wrap;html=1;align=center;" vertex="1" parent="1">
          <mxGeometry x="1270" y="590" width="20" height="20" as="geometry" />
        </mxCell>
        <mxCell id="z4GlL1HvJ0bHVtuUzZhY-96" value="" style="endArrow=none;html=1;rounded=0;curved=1;exitX=0.22;exitY=1.008;exitDx=0;exitDy=0;exitPerimeter=0;" edge="1" parent="1" source="J4YMdQohhsvqRCw_7hK--110">
          <mxGeometry relative="1" as="geometry">
            <mxPoint x="1230" y="540" as="sourcePoint" />
            <mxPoint x="1230" y="815" as="targetPoint" />
          </mxGeometry>
        </mxCell>
        <mxCell id="z4GlL1HvJ0bHVtuUzZhY-97" value="Data" style="text;html=1;align=center;verticalAlign=middle;resizable=0;points=[];autosize=1;strokeColor=none;fillColor=none;" vertex="1" parent="1">
          <mxGeometry x="1285" y="585" width="50" height="30" as="geometry" />
        </mxCell>
        <mxCell id="z4GlL1HvJ0bHVtuUzZhY-98" value="" style="endArrow=none;html=1;rounded=0;curved=1;" edge="1" parent="1">
          <mxGeometry relative="1" as="geometry">
            <mxPoint x="1230" y="600" as="sourcePoint" />
            <mxPoint x="1270" y="600" as="targetPoint" />
          </mxGeometry>
        </mxCell>
        <mxCell id="z4GlL1HvJ0bHVtuUzZhY-99" value="" style="ellipse;whiteSpace=wrap;html=1;align=center;" vertex="1" parent="1">
          <mxGeometry x="1270" y="620" width="20" height="20" as="geometry" />
        </mxCell>
        <mxCell id="z4GlL1HvJ0bHVtuUzZhY-100" value="" style="endArrow=none;html=1;rounded=0;curved=1;" edge="1" parent="1">
          <mxGeometry relative="1" as="geometry">
            <mxPoint x="1230" y="630" as="sourcePoint" />
            <mxPoint x="1270" y="630" as="targetPoint" />
          </mxGeometry>
        </mxCell>
        <mxCell id="z4GlL1HvJ0bHVtuUzZhY-101" value="" style="ellipse;whiteSpace=wrap;html=1;align=center;" vertex="1" parent="1">
          <mxGeometry x="1270" y="650" width="20" height="20" as="geometry" />
        </mxCell>
        <mxCell id="z4GlL1HvJ0bHVtuUzZhY-102" value="" style="endArrow=none;html=1;rounded=0;curved=1;" edge="1" parent="1">
          <mxGeometry relative="1" as="geometry">
            <mxPoint x="1230" y="660" as="sourcePoint" />
            <mxPoint x="1270" y="660" as="targetPoint" />
          </mxGeometry>
        </mxCell>
        <mxCell id="z4GlL1HvJ0bHVtuUzZhY-103" value="" style="ellipse;whiteSpace=wrap;html=1;align=center;" vertex="1" parent="1">
          <mxGeometry x="1270" y="680" width="20" height="20" as="geometry" />
        </mxCell>
        <mxCell id="z4GlL1HvJ0bHVtuUzZhY-104" value="" style="endArrow=none;html=1;rounded=0;curved=1;" edge="1" parent="1">
          <mxGeometry relative="1" as="geometry">
            <mxPoint x="1230" y="690" as="sourcePoint" />
            <mxPoint x="1270" y="690" as="targetPoint" />
          </mxGeometry>
        </mxCell>
        <mxCell id="z4GlL1HvJ0bHVtuUzZhY-111" value="Valor_Total" style="text;html=1;align=center;verticalAlign=middle;resizable=0;points=[];autosize=1;strokeColor=none;fillColor=none;" vertex="1" parent="1">
          <mxGeometry x="1285" y="615" width="80" height="30" as="geometry" />
        </mxCell>
        <mxCell id="z4GlL1HvJ0bHVtuUzZhY-112" value="Forma_Pagamento" style="text;html=1;align=center;verticalAlign=middle;resizable=0;points=[];autosize=1;strokeColor=none;fillColor=none;" vertex="1" parent="1">
          <mxGeometry x="1280" y="645" width="130" height="30" as="geometry" />
        </mxCell>
        <mxCell id="z4GlL1HvJ0bHVtuUzZhY-113" value="Status" style="text;html=1;align=center;verticalAlign=middle;resizable=0;points=[];autosize=1;strokeColor=none;fillColor=none;" vertex="1" parent="1">
          <mxGeometry x="1280" y="675" width="60" height="30" as="geometry" />
        </mxCell>
        <mxCell id="RDYVH3wZ4H2K-UH9AXLW-6" style="edgeStyle=orthogonalEdgeStyle;rounded=0;orthogonalLoop=1;jettySize=auto;html=1;" edge="1" parent="1" source="z4GlL1HvJ0bHVtuUzZhY-120" target="J4YMdQohhsvqRCw_7hK--118">
          <mxGeometry relative="1" as="geometry" />
        </mxCell>
        <mxCell id="RDYVH3wZ4H2K-UH9AXLW-14" style="edgeStyle=orthogonalEdgeStyle;rounded=0;orthogonalLoop=1;jettySize=auto;html=1;exitX=0;exitY=0.5;exitDx=0;exitDy=0;entryX=0.636;entryY=0.024;entryDx=0;entryDy=0;entryPerimeter=0;" edge="1" parent="1" source="z4GlL1HvJ0bHVtuUzZhY-120" target="J4YMdQohhsvqRCw_7hK--110">
          <mxGeometry relative="1" as="geometry" />
        </mxCell>
        <mxCell id="z4GlL1HvJ0bHVtuUzZhY-120" value="CLIENTE" style="rounded=0;whiteSpace=wrap;html=1;" vertex="1" parent="1">
          <mxGeometry x="1590" y="170" width="195" height="90" as="geometry" />
        </mxCell>
        <mxCell id="RDYVH3wZ4H2K-UH9AXLW-5" style="edgeStyle=orthogonalEdgeStyle;rounded=0;orthogonalLoop=1;jettySize=auto;html=1;" edge="1" parent="1" source="z4GlL1HvJ0bHVtuUzZhY-134" target="J4YMdQohhsvqRCw_7hK--118">
          <mxGeometry relative="1" as="geometry" />
        </mxCell>
        <mxCell id="RDYVH3wZ4H2K-UH9AXLW-7" style="edgeStyle=orthogonalEdgeStyle;rounded=0;orthogonalLoop=1;jettySize=auto;html=1;entryX=1;entryY=0.5;entryDx=0;entryDy=0;" edge="1" parent="1" source="z4GlL1HvJ0bHVtuUzZhY-134" target="J4YMdQohhsvqRCw_7hK--110">
          <mxGeometry relative="1" as="geometry" />
        </mxCell>
        <mxCell id="z4GlL1HvJ0bHVtuUzZhY-134" value="FUNCIONARIO" style="rounded=0;whiteSpace=wrap;html=1;" vertex="1" parent="1">
          <mxGeometry x="1595" y="645" width="195" height="90" as="geometry" />
        </mxCell>
        <mxCell id="z4GlL1HvJ0bHVtuUzZhY-135" value="" style="ellipse;whiteSpace=wrap;html=1;align=center;" vertex="1" parent="1">
          <mxGeometry x="1677.5" y="750" width="20" height="20" as="geometry" />
        </mxCell>
        <mxCell id="z4GlL1HvJ0bHVtuUzZhY-136" value="" style="endArrow=none;html=1;rounded=0;curved=1;" edge="1" parent="1">
          <mxGeometry relative="1" as="geometry">
            <mxPoint x="1640" y="735" as="sourcePoint" />
            <mxPoint x="1640" y="760" as="targetPoint" />
          </mxGeometry>
        </mxCell>
        <mxCell id="z4GlL1HvJ0bHVtuUzZhY-137" value="Cargo" style="text;html=1;align=center;verticalAlign=middle;resizable=0;points=[];autosize=1;strokeColor=none;fillColor=none;" vertex="1" parent="1">
          <mxGeometry x="1687.5" y="745" width="60" height="30" as="geometry" />
        </mxCell>
        <mxCell id="z4GlL1HvJ0bHVtuUzZhY-138" value="" style="endArrow=none;html=1;rounded=0;curved=1;" edge="1" parent="1">
          <mxGeometry relative="1" as="geometry">
            <mxPoint x="1640" y="760" as="sourcePoint" />
            <mxPoint x="1677.5" y="760" as="targetPoint" />
          </mxGeometry>
        </mxCell>
        <mxCell id="z4GlL1HvJ0bHVtuUzZhY-154" value="" style="ellipse;whiteSpace=wrap;html=1;align=center;fillColor=#000033;" vertex="1" parent="1">
          <mxGeometry x="755" y="265" width="20" height="20" as="geometry" />
        </mxCell>
        <mxCell id="z4GlL1HvJ0bHVtuUzZhY-155" value="" style="endArrow=none;html=1;rounded=0;curved=1;" edge="1" parent="1">
          <mxGeometry relative="1" as="geometry">
            <mxPoint x="715" y="275" as="sourcePoint" />
            <mxPoint x="755" y="275" as="targetPoint" />
          </mxGeometry>
        </mxCell>
        <mxCell id="z4GlL1HvJ0bHVtuUzZhY-156" value="&lt;b&gt;ID_Carro&lt;/b&gt;" style="text;html=1;align=center;verticalAlign=middle;resizable=0;points=[];autosize=1;strokeColor=none;fillColor=none;" vertex="1" parent="1">
          <mxGeometry x="770" y="260" width="70" height="30" as="geometry" />
        </mxCell>
        <mxCell id="z4GlL1HvJ0bHVtuUzZhY-160" value="" style="ellipse;whiteSpace=wrap;html=1;align=center;fillColor=#000033;" vertex="1" parent="1">
          <mxGeometry x="1270" y="550" width="20" height="20" as="geometry" />
        </mxCell>
        <mxCell id="z4GlL1HvJ0bHVtuUzZhY-161" value="" style="endArrow=none;html=1;rounded=0;curved=1;" edge="1" parent="1">
          <mxGeometry relative="1" as="geometry">
            <mxPoint x="1230" y="560" as="sourcePoint" />
            <mxPoint x="1270" y="560" as="targetPoint" />
          </mxGeometry>
        </mxCell>
        <mxCell id="z4GlL1HvJ0bHVtuUzZhY-162" value="&lt;b&gt;ID_Venda&lt;/b&gt;" style="text;html=1;align=center;verticalAlign=middle;resizable=0;points=[];autosize=1;strokeColor=none;fillColor=none;" vertex="1" parent="1">
          <mxGeometry x="1280" y="545" width="80" height="30" as="geometry" />
        </mxCell>
        <mxCell id="z4GlL1HvJ0bHVtuUzZhY-175" value="NOTA FISCAL" style="rounded=0;whiteSpace=wrap;html=1;" vertex="1" parent="1">
          <mxGeometry x="670" y="650" width="195" height="90" as="geometry" />
        </mxCell>
        <mxCell id="z4GlL1HvJ0bHVtuUzZhY-176" value="" style="ellipse;whiteSpace=wrap;html=1;align=center;" vertex="1" parent="1">
          <mxGeometry x="750" y="790" width="20" height="20" as="geometry" />
        </mxCell>
        <mxCell id="z4GlL1HvJ0bHVtuUzZhY-177" value="" style="endArrow=none;html=1;rounded=0;curved=1;" edge="1" parent="1">
          <mxGeometry relative="1" as="geometry">
            <mxPoint x="710" y="740" as="sourcePoint" />
            <mxPoint x="710" y="860" as="targetPoint" />
          </mxGeometry>
        </mxCell>
        <mxCell id="z4GlL1HvJ0bHVtuUzZhY-178" value="Numero_Nota_Fiscal" style="text;html=1;align=center;verticalAlign=middle;resizable=0;points=[];autosize=1;strokeColor=none;fillColor=none;" vertex="1" parent="1">
          <mxGeometry x="765" y="785" width="140" height="30" as="geometry" />
        </mxCell>
        <mxCell id="z4GlL1HvJ0bHVtuUzZhY-179" value="" style="endArrow=none;html=1;rounded=0;curved=1;" edge="1" parent="1">
          <mxGeometry relative="1" as="geometry">
            <mxPoint x="710" y="800" as="sourcePoint" />
            <mxPoint x="750" y="800" as="targetPoint" />
          </mxGeometry>
        </mxCell>
        <mxCell id="z4GlL1HvJ0bHVtuUzZhY-180" value="" style="ellipse;whiteSpace=wrap;html=1;align=center;" vertex="1" parent="1">
          <mxGeometry x="750" y="820" width="20" height="20" as="geometry" />
        </mxCell>
        <mxCell id="z4GlL1HvJ0bHVtuUzZhY-181" value="" style="endArrow=none;html=1;rounded=0;curved=1;" edge="1" parent="1">
          <mxGeometry relative="1" as="geometry">
            <mxPoint x="710" y="830" as="sourcePoint" />
            <mxPoint x="750" y="830" as="targetPoint" />
          </mxGeometry>
        </mxCell>
        <mxCell id="z4GlL1HvJ0bHVtuUzZhY-182" value="" style="ellipse;whiteSpace=wrap;html=1;align=center;" vertex="1" parent="1">
          <mxGeometry x="750" y="850" width="20" height="20" as="geometry" />
        </mxCell>
        <mxCell id="z4GlL1HvJ0bHVtuUzZhY-183" value="" style="endArrow=none;html=1;rounded=0;curved=1;" edge="1" parent="1">
          <mxGeometry relative="1" as="geometry">
            <mxPoint x="710" y="860" as="sourcePoint" />
            <mxPoint x="750" y="860" as="targetPoint" />
          </mxGeometry>
        </mxCell>
        <mxCell id="z4GlL1HvJ0bHVtuUzZhY-186" value="Data_Emissao" style="text;html=1;align=center;verticalAlign=middle;resizable=0;points=[];autosize=1;strokeColor=none;fillColor=none;" vertex="1" parent="1">
          <mxGeometry x="765" y="815" width="100" height="30" as="geometry" />
        </mxCell>
        <mxCell id="z4GlL1HvJ0bHVtuUzZhY-187" value="ID_Venda" style="text;html=1;align=center;verticalAlign=middle;resizable=0;points=[];autosize=1;strokeColor=none;fillColor=none;" vertex="1" parent="1">
          <mxGeometry x="765" y="845" width="80" height="30" as="geometry" />
        </mxCell>
        <mxCell id="z4GlL1HvJ0bHVtuUzZhY-189" value="" style="ellipse;whiteSpace=wrap;html=1;align=center;fillColor=#000033;" vertex="1" parent="1">
          <mxGeometry x="750" y="750" width="20" height="20" as="geometry" />
        </mxCell>
        <mxCell id="z4GlL1HvJ0bHVtuUzZhY-190" value="" style="endArrow=none;html=1;rounded=0;curved=1;" edge="1" parent="1">
          <mxGeometry relative="1" as="geometry">
            <mxPoint x="710" y="760" as="sourcePoint" />
            <mxPoint x="750" y="760" as="targetPoint" />
          </mxGeometry>
        </mxCell>
        <mxCell id="z4GlL1HvJ0bHVtuUzZhY-191" value="&lt;b&gt;ID_NotaFIscal&lt;/b&gt;" style="text;html=1;align=center;verticalAlign=middle;resizable=0;points=[];autosize=1;strokeColor=none;fillColor=none;" vertex="1" parent="1">
          <mxGeometry x="765" y="745" width="100" height="30" as="geometry" />
        </mxCell>
        <mxCell id="z4GlL1HvJ0bHVtuUzZhY-202" value="" style="ellipse;whiteSpace=wrap;html=1;align=center;" vertex="1" parent="1">
          <mxGeometry x="1270" y="740" width="20" height="20" as="geometry" />
        </mxCell>
        <mxCell id="z4GlL1HvJ0bHVtuUzZhY-203" value="" style="endArrow=none;html=1;rounded=0;curved=1;" edge="1" parent="1">
          <mxGeometry relative="1" as="geometry">
            <mxPoint x="1230" y="750" as="sourcePoint" />
            <mxPoint x="1270" y="750" as="targetPoint" />
          </mxGeometry>
        </mxCell>
        <mxCell id="z4GlL1HvJ0bHVtuUzZhY-204" value="ID_Cliente" style="text;html=1;align=center;verticalAlign=middle;resizable=0;points=[];autosize=1;strokeColor=none;fillColor=none;" vertex="1" parent="1">
          <mxGeometry x="1285" y="735" width="80" height="30" as="geometry" />
        </mxCell>
        <mxCell id="z4GlL1HvJ0bHVtuUzZhY-205" value="" style="ellipse;whiteSpace=wrap;html=1;align=center;" vertex="1" parent="1">
          <mxGeometry x="1270" y="710" width="20" height="20" as="geometry" />
        </mxCell>
        <mxCell id="z4GlL1HvJ0bHVtuUzZhY-206" value="" style="endArrow=none;html=1;rounded=0;curved=1;" edge="1" parent="1">
          <mxGeometry relative="1" as="geometry">
            <mxPoint x="1230" y="720" as="sourcePoint" />
            <mxPoint x="1270" y="720" as="targetPoint" />
          </mxGeometry>
        </mxCell>
        <mxCell id="z4GlL1HvJ0bHVtuUzZhY-207" value="ID_Funcionario" style="text;html=1;align=center;verticalAlign=middle;resizable=0;points=[];autosize=1;strokeColor=none;fillColor=none;" vertex="1" parent="1">
          <mxGeometry x="1285" y="705" width="100" height="30" as="geometry" />
        </mxCell>
        <mxCell id="z4GlL1HvJ0bHVtuUzZhY-208" value="" style="ellipse;whiteSpace=wrap;html=1;align=center;" vertex="1" parent="1">
          <mxGeometry x="1267.5" y="770" width="20" height="20" as="geometry" />
        </mxCell>
        <mxCell id="z4GlL1HvJ0bHVtuUzZhY-209" value="" style="endArrow=none;html=1;rounded=0;curved=1;" edge="1" parent="1">
          <mxGeometry relative="1" as="geometry">
            <mxPoint x="1230" y="780" as="sourcePoint" />
            <mxPoint x="1267.5" y="780" as="targetPoint" />
          </mxGeometry>
        </mxCell>
        <mxCell id="z4GlL1HvJ0bHVtuUzZhY-210" value="ID_Carro" style="text;html=1;align=center;verticalAlign=middle;resizable=0;points=[];autosize=1;strokeColor=none;fillColor=none;" vertex="1" parent="1">
          <mxGeometry x="1282.5" y="765" width="70" height="30" as="geometry" />
        </mxCell>
        <mxCell id="LMwngG9aBJ1QCVnjjgSZ-1" value="" style="ellipse;whiteSpace=wrap;html=1;align=center;" vertex="1" parent="1">
          <mxGeometry x="1267.5" y="805" width="20" height="20" as="geometry" />
        </mxCell>
        <mxCell id="LMwngG9aBJ1QCVnjjgSZ-2" value="" style="endArrow=none;html=1;rounded=0;curved=1;" edge="1" parent="1">
          <mxGeometry relative="1" as="geometry">
            <mxPoint x="1230" y="815" as="sourcePoint" />
            <mxPoint x="1267.5" y="815" as="targetPoint" />
          </mxGeometry>
        </mxCell>
        <mxCell id="LMwngG9aBJ1QCVnjjgSZ-3" value="ID_NotaFiscal" style="text;html=1;align=center;verticalAlign=middle;resizable=0;points=[];autosize=1;strokeColor=none;fillColor=none;" vertex="1" parent="1">
          <mxGeometry x="1280" y="800" width="100" height="30" as="geometry" />
        </mxCell>
        <mxCell id="J4YMdQohhsvqRCw_7hK--1" value="MARCA" style="rounded=0;whiteSpace=wrap;html=1;" vertex="1" parent="1">
          <mxGeometry y="170" width="195" height="90" as="geometry" />
        </mxCell>
        <mxCell id="J4YMdQohhsvqRCw_7hK--2" value="" style="ellipse;whiteSpace=wrap;html=1;align=center;" vertex="1" parent="1">
          <mxGeometry x="85" y="310" width="20" height="20" as="geometry" />
        </mxCell>
        <mxCell id="J4YMdQohhsvqRCw_7hK--3" value="" style="endArrow=none;html=1;rounded=0;curved=1;" edge="1" parent="1">
          <mxGeometry relative="1" as="geometry">
            <mxPoint x="45" y="260" as="sourcePoint" />
            <mxPoint x="45" y="320" as="targetPoint" />
          </mxGeometry>
        </mxCell>
        <mxCell id="J4YMdQohhsvqRCw_7hK--4" value="Nome" style="text;html=1;align=center;verticalAlign=middle;resizable=0;points=[];autosize=1;strokeColor=none;fillColor=none;" vertex="1" parent="1">
          <mxGeometry x="100" y="305" width="60" height="30" as="geometry" />
        </mxCell>
        <mxCell id="J4YMdQohhsvqRCw_7hK--5" value="" style="endArrow=none;html=1;rounded=0;curved=1;" edge="1" parent="1">
          <mxGeometry relative="1" as="geometry">
            <mxPoint x="45" y="320" as="sourcePoint" />
            <mxPoint x="85" y="320" as="targetPoint" />
          </mxGeometry>
        </mxCell>
        <mxCell id="J4YMdQohhsvqRCw_7hK--27" value="" style="ellipse;whiteSpace=wrap;html=1;align=center;fillColor=#000033;" vertex="1" parent="1">
          <mxGeometry x="85" y="265" width="20" height="20" as="geometry" />
        </mxCell>
        <mxCell id="J4YMdQohhsvqRCw_7hK--28" value="" style="endArrow=none;html=1;rounded=0;curved=1;" edge="1" parent="1">
          <mxGeometry relative="1" as="geometry">
            <mxPoint x="45" y="275" as="sourcePoint" />
            <mxPoint x="85" y="275" as="targetPoint" />
          </mxGeometry>
        </mxCell>
        <mxCell id="J4YMdQohhsvqRCw_7hK--29" value="&lt;b&gt;ID_Marca&lt;/b&gt;" style="text;html=1;align=center;verticalAlign=middle;resizable=0;points=[];autosize=1;strokeColor=none;fillColor=none;" vertex="1" parent="1">
          <mxGeometry x="95" y="260" width="80" height="30" as="geometry" />
        </mxCell>
        <mxCell id="RDYVH3wZ4H2K-UH9AXLW-27" style="edgeStyle=orthogonalEdgeStyle;rounded=0;orthogonalLoop=1;jettySize=auto;html=1;exitX=1;exitY=0.5;exitDx=0;exitDy=0;entryX=0;entryY=0.5;entryDx=0;entryDy=0;" edge="1" parent="1" source="J4YMdQohhsvqRCw_7hK--30" target="z4GlL1HvJ0bHVtuUzZhY-1">
          <mxGeometry relative="1" as="geometry" />
        </mxCell>
        <mxCell id="RDYVH3wZ4H2K-UH9AXLW-30" style="edgeStyle=orthogonalEdgeStyle;rounded=0;orthogonalLoop=1;jettySize=auto;html=1;exitX=0;exitY=0.5;exitDx=0;exitDy=0;entryX=1;entryY=0.5;entryDx=0;entryDy=0;" edge="1" parent="1" source="J4YMdQohhsvqRCw_7hK--30" target="J4YMdQohhsvqRCw_7hK--1">
          <mxGeometry relative="1" as="geometry" />
        </mxCell>
        <mxCell id="J4YMdQohhsvqRCw_7hK--30" value="MODELO" style="rounded=0;whiteSpace=wrap;html=1;" vertex="1" parent="1">
          <mxGeometry x="340" y="170" width="195" height="90" as="geometry" />
        </mxCell>
        <mxCell id="J4YMdQohhsvqRCw_7hK--31" value="" style="ellipse;whiteSpace=wrap;html=1;align=center;" vertex="1" parent="1">
          <mxGeometry x="425" y="300" width="20" height="20" as="geometry" />
        </mxCell>
        <mxCell id="J4YMdQohhsvqRCw_7hK--32" value="" style="endArrow=none;html=1;rounded=0;curved=1;" edge="1" parent="1">
          <mxGeometry relative="1" as="geometry">
            <mxPoint x="385" y="260" as="sourcePoint" />
            <mxPoint x="385" y="530" as="targetPoint" />
          </mxGeometry>
        </mxCell>
        <mxCell id="J4YMdQohhsvqRCw_7hK--33" value="ID_Marca" style="text;html=1;align=center;verticalAlign=middle;resizable=0;points=[];autosize=1;strokeColor=none;fillColor=none;" vertex="1" parent="1">
          <mxGeometry x="435" y="295" width="80" height="30" as="geometry" />
        </mxCell>
        <mxCell id="J4YMdQohhsvqRCw_7hK--34" value="" style="endArrow=none;html=1;rounded=0;curved=1;" edge="1" parent="1">
          <mxGeometry relative="1" as="geometry">
            <mxPoint x="385" y="310" as="sourcePoint" />
            <mxPoint x="425" y="310" as="targetPoint" />
          </mxGeometry>
        </mxCell>
        <mxCell id="J4YMdQohhsvqRCw_7hK--35" value="" style="ellipse;whiteSpace=wrap;html=1;align=center;" vertex="1" parent="1">
          <mxGeometry x="425" y="335" width="20" height="20" as="geometry" />
        </mxCell>
        <mxCell id="J4YMdQohhsvqRCw_7hK--36" value="" style="endArrow=none;html=1;rounded=0;curved=1;" edge="1" parent="1">
          <mxGeometry relative="1" as="geometry">
            <mxPoint x="385" y="345" as="sourcePoint" />
            <mxPoint x="425" y="345" as="targetPoint" />
          </mxGeometry>
        </mxCell>
        <mxCell id="J4YMdQohhsvqRCw_7hK--37" value="" style="ellipse;whiteSpace=wrap;html=1;align=center;" vertex="1" parent="1">
          <mxGeometry x="425" y="370" width="20" height="20" as="geometry" />
        </mxCell>
        <mxCell id="J4YMdQohhsvqRCw_7hK--38" value="" style="endArrow=none;html=1;rounded=0;curved=1;" edge="1" parent="1">
          <mxGeometry relative="1" as="geometry">
            <mxPoint x="385" y="380" as="sourcePoint" />
            <mxPoint x="425" y="380" as="targetPoint" />
          </mxGeometry>
        </mxCell>
        <mxCell id="J4YMdQohhsvqRCw_7hK--39" value="" style="ellipse;whiteSpace=wrap;html=1;align=center;" vertex="1" parent="1">
          <mxGeometry x="425" y="400" width="20" height="20" as="geometry" />
        </mxCell>
        <mxCell id="J4YMdQohhsvqRCw_7hK--40" value="" style="endArrow=none;html=1;rounded=0;curved=1;" edge="1" parent="1">
          <mxGeometry relative="1" as="geometry">
            <mxPoint x="385" y="410" as="sourcePoint" />
            <mxPoint x="425" y="410" as="targetPoint" />
          </mxGeometry>
        </mxCell>
        <mxCell id="J4YMdQohhsvqRCw_7hK--41" value="" style="ellipse;whiteSpace=wrap;html=1;align=center;" vertex="1" parent="1">
          <mxGeometry x="425" y="430" width="20" height="20" as="geometry" />
        </mxCell>
        <mxCell id="J4YMdQohhsvqRCw_7hK--42" value="" style="endArrow=none;html=1;rounded=0;curved=1;" edge="1" parent="1">
          <mxGeometry relative="1" as="geometry">
            <mxPoint x="385" y="440" as="sourcePoint" />
            <mxPoint x="425" y="440" as="targetPoint" />
          </mxGeometry>
        </mxCell>
        <mxCell id="J4YMdQohhsvqRCw_7hK--43" value="" style="ellipse;whiteSpace=wrap;html=1;align=center;" vertex="1" parent="1">
          <mxGeometry x="425" y="460" width="20" height="20" as="geometry" />
        </mxCell>
        <mxCell id="J4YMdQohhsvqRCw_7hK--44" value="" style="endArrow=none;html=1;rounded=0;curved=1;" edge="1" parent="1">
          <mxGeometry relative="1" as="geometry">
            <mxPoint x="385" y="470" as="sourcePoint" />
            <mxPoint x="425" y="470" as="targetPoint" />
          </mxGeometry>
        </mxCell>
        <mxCell id="J4YMdQohhsvqRCw_7hK--45" value="" style="ellipse;whiteSpace=wrap;html=1;align=center;" vertex="1" parent="1">
          <mxGeometry x="425" y="490" width="20" height="20" as="geometry" />
        </mxCell>
        <mxCell id="J4YMdQohhsvqRCw_7hK--46" value="" style="endArrow=none;html=1;rounded=0;curved=1;" edge="1" parent="1">
          <mxGeometry relative="1" as="geometry">
            <mxPoint x="385" y="500" as="sourcePoint" />
            <mxPoint x="425" y="500" as="targetPoint" />
          </mxGeometry>
        </mxCell>
        <mxCell id="J4YMdQohhsvqRCw_7hK--47" value="Nome" style="text;html=1;align=center;verticalAlign=middle;resizable=0;points=[];autosize=1;strokeColor=none;fillColor=none;" vertex="1" parent="1">
          <mxGeometry x="437" y="330" width="60" height="30" as="geometry" />
        </mxCell>
        <mxCell id="J4YMdQohhsvqRCw_7hK--48" value="TIpo_Combustivel" style="text;html=1;align=center;verticalAlign=middle;resizable=0;points=[];autosize=1;strokeColor=none;fillColor=none;" vertex="1" parent="1">
          <mxGeometry x="437" y="365" width="120" height="30" as="geometry" />
        </mxCell>
        <mxCell id="J4YMdQohhsvqRCw_7hK--49" value="Tipo_Motor" style="text;html=1;align=center;verticalAlign=middle;resizable=0;points=[];autosize=1;strokeColor=none;fillColor=none;" vertex="1" parent="1">
          <mxGeometry x="440" y="395" width="80" height="30" as="geometry" />
        </mxCell>
        <mxCell id="J4YMdQohhsvqRCw_7hK--50" value="Numero_Portas" style="text;html=1;align=center;verticalAlign=middle;resizable=0;points=[];autosize=1;strokeColor=none;fillColor=none;" vertex="1" parent="1">
          <mxGeometry x="440" y="425" width="110" height="30" as="geometry" />
        </mxCell>
        <mxCell id="J4YMdQohhsvqRCw_7hK--51" value="Numero_Lugares" style="text;html=1;align=center;verticalAlign=middle;resizable=0;points=[];autosize=1;strokeColor=none;fillColor=none;" vertex="1" parent="1">
          <mxGeometry x="437" y="455" width="120" height="30" as="geometry" />
        </mxCell>
        <mxCell id="J4YMdQohhsvqRCw_7hK--56" value="" style="ellipse;whiteSpace=wrap;html=1;align=center;fillColor=#000033;" vertex="1" parent="1">
          <mxGeometry x="425" y="265" width="20" height="20" as="geometry" />
        </mxCell>
        <mxCell id="J4YMdQohhsvqRCw_7hK--57" value="" style="endArrow=none;html=1;rounded=0;curved=1;" edge="1" parent="1">
          <mxGeometry relative="1" as="geometry">
            <mxPoint x="385" y="275" as="sourcePoint" />
            <mxPoint x="425" y="275" as="targetPoint" />
          </mxGeometry>
        </mxCell>
        <mxCell id="J4YMdQohhsvqRCw_7hK--58" value="&lt;b&gt;ID_Modelo&lt;/b&gt;" style="text;html=1;align=center;verticalAlign=middle;resizable=0;points=[];autosize=1;strokeColor=none;fillColor=none;" vertex="1" parent="1">
          <mxGeometry x="440" y="260" width="80" height="30" as="geometry" />
        </mxCell>
        <mxCell id="J4YMdQohhsvqRCw_7hK--126" style="edgeStyle=orthogonalEdgeStyle;rounded=0;orthogonalLoop=1;jettySize=auto;html=1;" edge="1" parent="1" source="J4YMdQohhsvqRCw_7hK--59" target="z4GlL1HvJ0bHVtuUzZhY-120">
          <mxGeometry relative="1" as="geometry" />
        </mxCell>
        <mxCell id="J4YMdQohhsvqRCw_7hK--59" value="ENDEREÃO" style="rounded=0;whiteSpace=wrap;html=1;" vertex="1" parent="1">
          <mxGeometry x="1891" y="20" width="195" height="90" as="geometry" />
        </mxCell>
        <mxCell id="J4YMdQohhsvqRCw_7hK--60" value="" style="ellipse;whiteSpace=wrap;html=1;align=center;" vertex="1" parent="1">
          <mxGeometry x="1976" y="150" width="20" height="20" as="geometry" />
        </mxCell>
        <mxCell id="J4YMdQohhsvqRCw_7hK--61" value="" style="endArrow=none;html=1;rounded=0;curved=1;" edge="1" parent="1">
          <mxGeometry relative="1" as="geometry">
            <mxPoint x="1936" y="110" as="sourcePoint" />
            <mxPoint x="1936" y="330" as="targetPoint" />
          </mxGeometry>
        </mxCell>
        <mxCell id="J4YMdQohhsvqRCw_7hK--63" value="" style="endArrow=none;html=1;rounded=0;curved=1;" edge="1" parent="1">
          <mxGeometry relative="1" as="geometry">
            <mxPoint x="1936" y="160" as="sourcePoint" />
            <mxPoint x="1976" y="160" as="targetPoint" />
          </mxGeometry>
        </mxCell>
        <mxCell id="J4YMdQohhsvqRCw_7hK--64" value="" style="ellipse;whiteSpace=wrap;html=1;align=center;" vertex="1" parent="1">
          <mxGeometry x="1976" y="180" width="20" height="20" as="geometry" />
        </mxCell>
        <mxCell id="J4YMdQohhsvqRCw_7hK--65" value="" style="endArrow=none;html=1;rounded=0;curved=1;" edge="1" parent="1">
          <mxGeometry relative="1" as="geometry">
            <mxPoint x="1936" y="190" as="sourcePoint" />
            <mxPoint x="1976" y="190" as="targetPoint" />
          </mxGeometry>
        </mxCell>
        <mxCell id="J4YMdQohhsvqRCw_7hK--66" value="" style="ellipse;whiteSpace=wrap;html=1;align=center;" vertex="1" parent="1">
          <mxGeometry x="1976" y="210" width="20" height="20" as="geometry" />
        </mxCell>
        <mxCell id="J4YMdQohhsvqRCw_7hK--69" value="" style="ellipse;whiteSpace=wrap;html=1;align=center;fillColor=#000033;" vertex="1" parent="1">
          <mxGeometry x="1977" y="115" width="20" height="20" as="geometry" />
        </mxCell>
        <mxCell id="J4YMdQohhsvqRCw_7hK--70" value="" style="endArrow=none;html=1;rounded=0;curved=1;" edge="1" parent="1">
          <mxGeometry relative="1" as="geometry">
            <mxPoint x="1937" y="125" as="sourcePoint" />
            <mxPoint x="1977" y="125" as="targetPoint" />
          </mxGeometry>
        </mxCell>
        <mxCell id="J4YMdQohhsvqRCw_7hK--71" value="&lt;b&gt;ID_Endereco&lt;/b&gt;" style="text;html=1;align=center;verticalAlign=middle;resizable=0;points=[];autosize=1;strokeColor=none;fillColor=none;" vertex="1" parent="1">
          <mxGeometry x="1990" y="110" width="100" height="30" as="geometry" />
        </mxCell>
        <mxCell id="J4YMdQohhsvqRCw_7hK--72" value="" style="endArrow=none;html=1;rounded=0;curved=1;" edge="1" parent="1">
          <mxGeometry relative="1" as="geometry">
            <mxPoint x="1936" y="220" as="sourcePoint" />
            <mxPoint x="1976" y="220" as="targetPoint" />
          </mxGeometry>
        </mxCell>
        <mxCell id="J4YMdQohhsvqRCw_7hK--73" value="" style="ellipse;whiteSpace=wrap;html=1;align=center;" vertex="1" parent="1">
          <mxGeometry x="1976" y="240" width="20" height="20" as="geometry" />
        </mxCell>
        <mxCell id="J4YMdQohhsvqRCw_7hK--75" value="" style="endArrow=none;html=1;rounded=0;curved=1;" edge="1" parent="1">
          <mxGeometry relative="1" as="geometry">
            <mxPoint x="1936" y="250" as="sourcePoint" />
            <mxPoint x="1976" y="250" as="targetPoint" />
          </mxGeometry>
        </mxCell>
        <mxCell id="J4YMdQohhsvqRCw_7hK--127" style="edgeStyle=orthogonalEdgeStyle;rounded=0;orthogonalLoop=1;jettySize=auto;html=1;exitX=0;exitY=0;exitDx=0;exitDy=0;entryX=0.25;entryY=0;entryDx=0;entryDy=0;" edge="1" parent="1" source="J4YMdQohhsvqRCw_7hK--76" target="z4GlL1HvJ0bHVtuUzZhY-120">
          <mxGeometry relative="1" as="geometry" />
        </mxCell>
        <mxCell id="J4YMdQohhsvqRCw_7hK--76" value="TELEFONE" style="rounded=0;whiteSpace=wrap;html=1;" vertex="1" parent="1">
          <mxGeometry x="2110" y="20" width="195" height="90" as="geometry" />
        </mxCell>
        <mxCell id="J4YMdQohhsvqRCw_7hK--77" value="" style="ellipse;whiteSpace=wrap;html=1;align=center;" vertex="1" parent="1">
          <mxGeometry x="2195" y="150" width="20" height="20" as="geometry" />
        </mxCell>
        <mxCell id="J4YMdQohhsvqRCw_7hK--78" value="" style="endArrow=none;html=1;rounded=0;curved=1;" edge="1" parent="1">
          <mxGeometry relative="1" as="geometry">
            <mxPoint x="2155" y="110" as="sourcePoint" />
            <mxPoint x="2155" y="250" as="targetPoint" />
          </mxGeometry>
        </mxCell>
        <mxCell id="J4YMdQohhsvqRCw_7hK--80" value="" style="endArrow=none;html=1;rounded=0;curved=1;" edge="1" parent="1">
          <mxGeometry relative="1" as="geometry">
            <mxPoint x="2155" y="160" as="sourcePoint" />
            <mxPoint x="2195" y="160" as="targetPoint" />
          </mxGeometry>
        </mxCell>
        <mxCell id="J4YMdQohhsvqRCw_7hK--81" value="" style="ellipse;whiteSpace=wrap;html=1;align=center;" vertex="1" parent="1">
          <mxGeometry x="2195" y="180" width="20" height="20" as="geometry" />
        </mxCell>
        <mxCell id="J4YMdQohhsvqRCw_7hK--82" value="" style="endArrow=none;html=1;rounded=0;curved=1;" edge="1" parent="1">
          <mxGeometry relative="1" as="geometry">
            <mxPoint x="2155" y="190" as="sourcePoint" />
            <mxPoint x="2195" y="190" as="targetPoint" />
          </mxGeometry>
        </mxCell>
        <mxCell id="J4YMdQohhsvqRCw_7hK--83" value="" style="ellipse;whiteSpace=wrap;html=1;align=center;" vertex="1" parent="1">
          <mxGeometry x="2195" y="210" width="20" height="20" as="geometry" />
        </mxCell>
        <mxCell id="J4YMdQohhsvqRCw_7hK--86" value="" style="ellipse;whiteSpace=wrap;html=1;align=center;fillColor=#000033;" vertex="1" parent="1">
          <mxGeometry x="2196" y="115" width="20" height="20" as="geometry" />
        </mxCell>
        <mxCell id="J4YMdQohhsvqRCw_7hK--87" value="" style="endArrow=none;html=1;rounded=0;curved=1;" edge="1" parent="1">
          <mxGeometry relative="1" as="geometry">
            <mxPoint x="2156" y="125" as="sourcePoint" />
            <mxPoint x="2196" y="125" as="targetPoint" />
          </mxGeometry>
        </mxCell>
        <mxCell id="J4YMdQohhsvqRCw_7hK--88" value="&lt;b&gt;ID_Telefone&lt;/b&gt;" style="text;html=1;align=center;verticalAlign=middle;resizable=0;points=[];autosize=1;strokeColor=none;fillColor=none;" vertex="1" parent="1">
          <mxGeometry x="2215" y="110" width="90" height="30" as="geometry" />
        </mxCell>
        <mxCell id="J4YMdQohhsvqRCw_7hK--89" value="" style="endArrow=none;html=1;rounded=0;curved=1;" edge="1" parent="1">
          <mxGeometry relative="1" as="geometry">
            <mxPoint x="2155" y="220" as="sourcePoint" />
            <mxPoint x="2195" y="220" as="targetPoint" />
          </mxGeometry>
        </mxCell>
        <mxCell id="J4YMdQohhsvqRCw_7hK--93" value="PESSOA" style="rounded=0;whiteSpace=wrap;html=1;" vertex="1" parent="1">
          <mxGeometry x="1960" y="400" width="195" height="90" as="geometry" />
        </mxCell>
        <mxCell id="J4YMdQohhsvqRCw_7hK--94" value="" style="ellipse;whiteSpace=wrap;html=1;align=center;" vertex="1" parent="1">
          <mxGeometry x="2045" y="525" width="20" height="20" as="geometry" />
        </mxCell>
        <mxCell id="J4YMdQohhsvqRCw_7hK--95" value="" style="endArrow=none;html=1;rounded=0;curved=1;" edge="1" parent="1">
          <mxGeometry relative="1" as="geometry">
            <mxPoint x="2005" y="490" as="sourcePoint" />
            <mxPoint x="2005" y="570" as="targetPoint" />
          </mxGeometry>
        </mxCell>
        <mxCell id="J4YMdQohhsvqRCw_7hK--96" value="Nome" style="text;html=1;align=center;verticalAlign=middle;resizable=0;points=[];autosize=1;strokeColor=none;fillColor=none;" vertex="1" parent="1">
          <mxGeometry x="2055" y="520" width="60" height="30" as="geometry" />
        </mxCell>
        <mxCell id="J4YMdQohhsvqRCw_7hK--97" value="" style="endArrow=none;html=1;rounded=0;curved=1;" edge="1" parent="1">
          <mxGeometry relative="1" as="geometry">
            <mxPoint x="2005" y="535" as="sourcePoint" />
            <mxPoint x="2045" y="535" as="targetPoint" />
          </mxGeometry>
        </mxCell>
        <mxCell id="J4YMdQohhsvqRCw_7hK--98" value="" style="ellipse;whiteSpace=wrap;html=1;align=center;" vertex="1" parent="1">
          <mxGeometry x="2045" y="560" width="20" height="20" as="geometry" />
        </mxCell>
        <mxCell id="J4YMdQohhsvqRCw_7hK--99" value="" style="endArrow=none;html=1;rounded=0;curved=1;" edge="1" parent="1">
          <mxGeometry relative="1" as="geometry">
            <mxPoint x="2005" y="570" as="sourcePoint" />
            <mxPoint x="2045" y="570" as="targetPoint" />
          </mxGeometry>
        </mxCell>
        <mxCell id="J4YMdQohhsvqRCw_7hK--104" value="Email" style="text;html=1;align=center;verticalAlign=middle;resizable=0;points=[];autosize=1;strokeColor=none;fillColor=none;" vertex="1" parent="1">
          <mxGeometry x="2060" y="555" width="50" height="30" as="geometry" />
        </mxCell>
        <mxCell id="J4YMdQohhsvqRCw_7hK--107" value="" style="ellipse;whiteSpace=wrap;html=1;align=center;fillColor=#000033;" vertex="1" parent="1">
          <mxGeometry x="2046" y="495" width="20" height="20" as="geometry" />
        </mxCell>
        <mxCell id="J4YMdQohhsvqRCw_7hK--108" value="" style="endArrow=none;html=1;rounded=0;curved=1;" edge="1" parent="1">
          <mxGeometry relative="1" as="geometry">
            <mxPoint x="2006" y="505" as="sourcePoint" />
            <mxPoint x="2046" y="505" as="targetPoint" />
          </mxGeometry>
        </mxCell>
        <mxCell id="J4YMdQohhsvqRCw_7hK--109" value="&lt;b&gt;ID_Pessoa&lt;/b&gt;" style="text;html=1;align=center;verticalAlign=middle;resizable=0;points=[];autosize=1;strokeColor=none;fillColor=none;" vertex="1" parent="1">
          <mxGeometry x="2060" y="490" width="80" height="30" as="geometry" />
        </mxCell>
        <mxCell id="RDYVH3wZ4H2K-UH9AXLW-37" style="edgeStyle=orthogonalEdgeStyle;rounded=0;orthogonalLoop=1;jettySize=auto;html=1;entryX=1;entryY=0.75;entryDx=0;entryDy=0;" edge="1" parent="1" source="J4YMdQohhsvqRCw_7hK--110" target="z4GlL1HvJ0bHVtuUzZhY-175">
          <mxGeometry relative="1" as="geometry" />
        </mxCell>
        <mxCell id="J4YMdQohhsvqRCw_7hK--110" value="VENDA" style="shape=associativeEntity;whiteSpace=wrap;html=1;align=center;" vertex="1" parent="1">
          <mxGeometry x="1180" y="400" width="217.5" height="130" as="geometry" />
        </mxCell>
        <mxCell id="RDYVH3wZ4H2K-UH9AXLW-28" style="edgeStyle=orthogonalEdgeStyle;rounded=0;orthogonalLoop=1;jettySize=auto;html=1;exitX=1;exitY=0.5;exitDx=0;exitDy=0;entryX=0;entryY=0.5;entryDx=0;entryDy=0;" edge="1" parent="1" source="J4YMdQohhsvqRCw_7hK--118" target="J4YMdQohhsvqRCw_7hK--93">
          <mxGeometry relative="1" as="geometry" />
        </mxCell>
        <mxCell id="J4YMdQohhsvqRCw_7hK--118" value="" style="triangle;whiteSpace=wrap;html=1;" vertex="1" parent="1">
          <mxGeometry x="1845" y="405" width="60" height="80" as="geometry" />
        </mxCell>
        <mxCell id="J4YMdQohhsvqRCw_7hK--128" value="ID_Pessoa" style="text;html=1;align=center;verticalAlign=middle;resizable=0;points=[];autosize=1;strokeColor=none;fillColor=none;" vertex="1" parent="1">
          <mxGeometry x="1990" y="145" width="80" height="30" as="geometry" />
        </mxCell>
        <mxCell id="J4YMdQohhsvqRCw_7hK--129" value="ID_Pessoa" style="text;html=1;align=center;verticalAlign=middle;resizable=0;points=[];autosize=1;strokeColor=none;fillColor=none;" vertex="1" parent="1">
          <mxGeometry x="2216" y="145" width="80" height="30" as="geometry" />
        </mxCell>
        <mxCell id="J4YMdQohhsvqRCw_7hK--174" value="Telefone" style="text;html=1;align=center;verticalAlign=middle;resizable=0;points=[];autosize=1;strokeColor=none;fillColor=none;" vertex="1" parent="1">
          <mxGeometry x="2215" y="177" width="70" height="30" as="geometry" />
        </mxCell>
        <mxCell id="J4YMdQohhsvqRCw_7hK--175" value="Rua" style="text;html=1;align=center;verticalAlign=middle;resizable=0;points=[];autosize=1;strokeColor=none;fillColor=none;" vertex="1" parent="1">
          <mxGeometry x="1985" y="175" width="50" height="30" as="geometry" />
        </mxCell>
        <mxCell id="J4YMdQohhsvqRCw_7hK--176" value="Cep" style="text;html=1;align=center;verticalAlign=middle;resizable=0;points=[];autosize=1;strokeColor=none;fillColor=none;" vertex="1" parent="1">
          <mxGeometry x="1986" y="235" width="50" height="30" as="geometry" />
        </mxCell>
        <mxCell id="J4YMdQohhsvqRCw_7hK--177" value="Bairro" style="text;html=1;align=center;verticalAlign=middle;resizable=0;points=[];autosize=1;strokeColor=none;fillColor=none;" vertex="1" parent="1">
          <mxGeometry x="1985" y="205" width="60" height="30" as="geometry" />
        </mxCell>
        <mxCell id="J4YMdQohhsvqRCw_7hK--178" value="" style="ellipse;whiteSpace=wrap;html=1;align=center;" vertex="1" parent="1">
          <mxGeometry x="1976" y="265" width="20" height="20" as="geometry" />
        </mxCell>
        <mxCell id="J4YMdQohhsvqRCw_7hK--179" value="" style="endArrow=none;html=1;rounded=0;curved=1;" edge="1" parent="1">
          <mxGeometry relative="1" as="geometry">
            <mxPoint x="1936" y="275" as="sourcePoint" />
            <mxPoint x="1976" y="275" as="targetPoint" />
          </mxGeometry>
        </mxCell>
        <mxCell id="J4YMdQohhsvqRCw_7hK--180" value="Numero" style="text;html=1;align=center;verticalAlign=middle;resizable=0;points=[];autosize=1;strokeColor=none;fillColor=none;" vertex="1" parent="1">
          <mxGeometry x="1986" y="260" width="70" height="30" as="geometry" />
        </mxCell>
        <mxCell id="J4YMdQohhsvqRCw_7hK--181" value="" style="ellipse;whiteSpace=wrap;html=1;align=center;" vertex="1" parent="1">
          <mxGeometry x="1976" y="295" width="20" height="20" as="geometry" />
        </mxCell>
        <mxCell id="J4YMdQohhsvqRCw_7hK--182" value="" style="endArrow=none;html=1;rounded=0;curved=1;" edge="1" parent="1">
          <mxGeometry relative="1" as="geometry">
            <mxPoint x="1936" y="305" as="sourcePoint" />
            <mxPoint x="1976" y="305" as="targetPoint" />
          </mxGeometry>
        </mxCell>
        <mxCell id="J4YMdQohhsvqRCw_7hK--183" value="Estado" style="text;html=1;align=center;verticalAlign=middle;resizable=0;points=[];autosize=1;strokeColor=none;fillColor=none;" vertex="1" parent="1">
          <mxGeometry x="1990" y="290" width="60" height="30" as="geometry" />
        </mxCell>
        <mxCell id="J4YMdQohhsvqRCw_7hK--184" value="" style="ellipse;whiteSpace=wrap;html=1;align=center;" vertex="1" parent="1">
          <mxGeometry x="1976" y="320" width="20" height="20" as="geometry" />
        </mxCell>
        <mxCell id="J4YMdQohhsvqRCw_7hK--185" value="" style="endArrow=none;html=1;rounded=0;curved=1;" edge="1" parent="1">
          <mxGeometry relative="1" as="geometry">
            <mxPoint x="1936" y="330" as="sourcePoint" />
            <mxPoint x="1976" y="330" as="targetPoint" />
          </mxGeometry>
        </mxCell>
        <mxCell id="J4YMdQohhsvqRCw_7hK--186" value="Complemento" style="text;html=1;align=center;verticalAlign=middle;resizable=0;points=[];autosize=1;strokeColor=none;fillColor=none;" vertex="1" parent="1">
          <mxGeometry x="1986" y="315" width="100" height="30" as="geometry" />
        </mxCell>
        <mxCell id="J4YMdQohhsvqRCw_7hK--187" value="DDD" style="text;html=1;align=center;verticalAlign=middle;resizable=0;points=[];autosize=1;strokeColor=none;fillColor=none;" vertex="1" parent="1">
          <mxGeometry x="2215" y="205" width="50" height="30" as="geometry" />
        </mxCell>
        <mxCell id="RDYVH3wZ4H2K-UH9AXLW-9" value="(N,1)" style="text;html=1;align=center;verticalAlign=middle;resizable=0;points=[];autosize=1;strokeColor=none;fillColor=none;rotation=90;" vertex="1" parent="1">
          <mxGeometry x="1490" y="570" width="50" height="30" as="geometry" />
        </mxCell>
        <mxCell id="RDYVH3wZ4H2K-UH9AXLW-11" value="(1,1)" style="text;html=1;align=center;verticalAlign=middle;resizable=0;points=[];autosize=1;strokeColor=none;fillColor=none;rotation=-90;" vertex="1" parent="1">
          <mxGeometry x="1010" y="570" width="50" height="30" as="geometry" />
        </mxCell>
        <mxCell id="RDYVH3wZ4H2K-UH9AXLW-15" value="(N,1)" style="text;html=1;align=center;verticalAlign=middle;resizable=0;points=[];autosize=1;strokeColor=none;fillColor=none;" vertex="1" parent="1">
          <mxGeometry x="1415" y="188" width="50" height="30" as="geometry" />
        </mxCell>
        <mxCell id="RDYVH3wZ4H2K-UH9AXLW-16" value="(1,1)" style="text;html=1;align=center;verticalAlign=middle;resizable=0;points=[];autosize=1;strokeColor=none;fillColor=none;" vertex="1" parent="1">
          <mxGeometry x="995" y="188" width="50" height="30" as="geometry" />
        </mxCell>
        <mxCell id="RDYVH3wZ4H2K-UH9AXLW-24" value="POSSUI&lt;br&gt;" style="shape=rhombus;perimeter=rhombusPerimeter;whiteSpace=wrap;html=1;align=center;" vertex="1" parent="1">
          <mxGeometry x="560" y="197.5" width="74" height="35" as="geometry" />
        </mxCell>
        <mxCell id="RDYVH3wZ4H2K-UH9AXLW-19" value="POSSUI&lt;br&gt;" style="shape=rhombus;perimeter=rhombusPerimeter;whiteSpace=wrap;html=1;align=center;" vertex="1" parent="1">
          <mxGeometry x="230" y="197.5" width="74" height="35" as="geometry" />
        </mxCell>
        <mxCell id="RDYVH3wZ4H2K-UH9AXLW-31" value="(N,1)" style="text;html=1;align=center;verticalAlign=middle;resizable=0;points=[];autosize=1;strokeColor=none;fillColor=none;" vertex="1" parent="1">
          <mxGeometry x="572" y="158" width="50" height="30" as="geometry" />
        </mxCell>
        <mxCell id="RDYVH3wZ4H2K-UH9AXLW-32" value="(1,N )" style="text;html=1;align=center;verticalAlign=middle;resizable=0;points=[];autosize=1;strokeColor=none;fillColor=none;" vertex="1" parent="1">
          <mxGeometry x="241" y="158" width="50" height="30" as="geometry" />
        </mxCell>
        <mxCell id="RDYVH3wZ4H2K-UH9AXLW-33" value="Placa" style="text;html=1;align=center;verticalAlign=middle;resizable=0;points=[];autosize=1;strokeColor=none;fillColor=none;" vertex="1" parent="1">
          <mxGeometry x="770" y="335" width="50" height="30" as="geometry" />
        </mxCell>
        <mxCell id="RDYVH3wZ4H2K-UH9AXLW-34" value="Ano_Fabricacao" style="text;html=1;align=center;verticalAlign=middle;resizable=0;points=[];autosize=1;strokeColor=none;fillColor=none;" vertex="1" parent="1">
          <mxGeometry x="440" y="485" width="110" height="30" as="geometry" />
        </mxCell>
        <mxCell id="RDYVH3wZ4H2K-UH9AXLW-35" value="Quilometragem" style="text;html=1;align=center;verticalAlign=middle;resizable=0;points=[];autosize=1;strokeColor=none;fillColor=none;" vertex="1" parent="1">
          <mxGeometry x="767.5" y="365" width="110" height="30" as="geometry" />
        </mxCell>
        <mxCell id="KC37pJn9mV04nnzOFynK-1" value="" style="ellipse;whiteSpace=wrap;html=1;align=center;" vertex="1" parent="1">
          <mxGeometry x="424.5" y="515" width="20" height="20" as="geometry" />
        </mxCell>
        <mxCell id="KC37pJn9mV04nnzOFynK-2" value="" style="endArrow=none;html=1;rounded=0;curved=1;" edge="1" parent="1">
          <mxGeometry relative="1" as="geometry">
            <mxPoint x="384.5" y="525" as="sourcePoint" />
            <mxPoint x="424.5" y="525" as="targetPoint" />
          </mxGeometry>
        </mxCell>
        <mxCell id="KC37pJn9mV04nnzOFynK-3" value="Ano_Modelo" style="text;html=1;align=center;verticalAlign=middle;resizable=0;points=[];autosize=1;strokeColor=none;fillColor=none;" vertex="1" parent="1">
          <mxGeometry x="437" y="510" width="90" height="30" as="geometry" />
        </mxCell>
        <mxCell id="KC37pJn9mV04nnzOFynK-4" value="" style="ellipse;whiteSpace=wrap;html=1;align=center;" vertex="1" parent="1">
          <mxGeometry x="2195" y="235" width="20" height="20" as="geometry" />
        </mxCell>
        <mxCell id="KC37pJn9mV04nnzOFynK-5" value="" style="endArrow=none;html=1;rounded=0;curved=1;" edge="1" parent="1">
          <mxGeometry relative="1" as="geometry">
            <mxPoint x="2155" y="245" as="sourcePoint" />
            <mxPoint x="2195" y="245" as="targetPoint" />
          </mxGeometry>
        </mxCell>
        <mxCell id="KC37pJn9mV04nnzOFynK-6" value="DDI" style="text;html=1;align=center;verticalAlign=middle;resizable=0;points=[];autosize=1;strokeColor=none;fillColor=none;" vertex="1" parent="1">
          <mxGeometry x="2215" y="230" width="40" height="30" as="geometry" />
        </mxCell>
      </root>
    </mxGraphModel>
  </diagram>
</mxfile>
